<svg width="506" height="506" viewBox="0 0 506 506" fill="none" xmlns="http://www.w3.org/2000/svg">
<path d="M456.092 140.138C449.468 124.802 439.918 110.904 427.975 99.2234C416.024 87.5077 401.932 78.1973 386.467 71.7986C370.431 65.1373 353.232 61.7276 335.867 61.7676C311.506 61.7676 287.738 68.4385 267.083 81.0391C262.142 84.0533 257.447 87.3641 253 90.9713C248.553 87.3641 243.858 84.0533 238.917 81.0391C218.262 68.4385 194.494 61.7676 170.133 61.7676C152.591 61.7676 135.592 65.1277 119.533 71.7986C104.017 78.2225 90.0324 87.4629 78.0248 99.2234C66.0664 110.891 56.5138 124.792 49.9082 140.138C43.0396 156.099 39.5312 173.048 39.5312 190.491C39.5312 206.946 42.8914 224.093 49.5623 241.536C55.1461 256.113 63.1512 271.234 73.3799 286.503C89.5877 310.666 111.873 335.867 139.545 361.414C185.402 403.762 230.813 433.015 232.74 434.201L244.451 441.712C249.64 445.023 256.311 445.023 261.499 441.712L273.21 434.201C275.138 432.966 320.5 403.762 366.405 361.414C394.077 335.867 416.363 310.666 432.571 286.503C442.799 271.234 450.854 256.113 456.388 241.536C463.059 224.093 466.419 206.946 466.419 190.491C466.469 173.048 462.96 156.099 456.092 140.138V140.138ZM253 402.626C253 402.626 77.0859 289.912 77.0859 190.491C77.0859 140.138 118.742 99.3223 170.133 99.3223C206.254 99.3223 237.583 119.483 253 148.934C268.417 119.483 299.746 99.3223 335.867 99.3223C387.258 99.3223 428.914 140.138 428.914 190.491C428.914 289.912 253 402.626 253 402.626Z" fill="black"/>
</svg>
